<?xml version="1.0" encoding="iso-8859-1"?>
<!-- Generator: Adobe Illustrator 19.0.0, SVG Export Plug-In . SVG Version: 6.00 Build 0)  -->
<svg version="1.1" id="Layer_1" xmlns="http://www.w3.org/2000/svg" xmlns:xlink="http://www.w3.org/1999/xlink" x="0px" y="0px"
	 viewBox="0 0 512 512" style="enable-background:new 0 0 512 512;" xml:space="preserve">
<g>
	<g>
		<path d="M468.381,111.123c-2.604-3.86-7.518-5.428-11.876-3.776c-4.354,1.647-7.005,6.073-6.402,10.69
			c1.103,8.439,1.662,17.064,1.662,25.636c0,107.946-87.82,195.765-195.765,195.765S60.235,251.619,60.235,143.673
			c0-8.575,0.559-17.2,1.663-25.634c0.604-4.618-2.047-9.044-6.402-10.692c-4.353-1.643-9.271-0.083-11.875,3.776
			C15.083,153.432,0,202.874,0,254.104c0,141.159,114.841,256,256,256c141.159,0,256-114.841,256-256
			C512,202.873,496.917,153.43,468.381,111.123z M256,490.026c-130.087,0-235.922-105.833-235.922-235.922
			c0-33.564,7.023-66.292,20.528-96.413C47.85,270.202,141.691,359.516,256,359.516S464.15,270.2,471.393,157.689
			c13.505,30.121,20.528,62.851,20.528,96.415C491.922,384.192,386.087,490.026,256,490.026z"/>
	</g>
</g>
<g>
	<g>
		<path d="M308.922,57.96l-22.027-17.375l1.826-27.996c0.249-3.812-1.69-7.436-4.999-9.347c-3.306-1.912-7.414-1.778-10.594,0.344
			l-23.332,15.58L223.734,8.777c-3.549-1.412-7.595-0.692-10.435,1.865c-2.839,2.557-3.982,6.505-2.945,10.182l7.606,27.005
			l-17.934,21.576c-2.442,2.939-3.005,7.009-1.451,10.5c1.555,3.491,4.956,5.796,8.775,5.948l28.033,1.109l14.979,23.724
			c1.852,2.931,5.067,4.679,8.486,4.679c0.349,0,0.7-0.018,1.052-0.055c3.801-0.4,7.045-2.922,8.369-6.506l9.718-26.319l27.19-6.916
			c3.703-0.941,6.552-3.904,7.346-7.642S311.922,60.327,308.922,57.96z M267.924,64.329c-3.202,0.814-5.799,3.152-6.944,6.251
			l-4.5,12.187l-6.936-10.986c-1.765-2.793-4.79-4.54-8.092-4.672l-12.982-0.513l8.305-9.992c2.112-2.54,2.838-5.958,1.942-9.138
			l-3.522-12.505l12.067,4.81c3.071,1.221,6.544,0.855,9.292-0.977l10.805-7.214l-0.846,12.964c-0.214,3.297,1.207,6.489,3.8,8.536
			l10.201,8.047L267.924,64.329z"/>
	</g>
</g>
<g>
</g>
<g>
</g>
<g>
</g>
<g>
</g>
<g>
</g>
<g>
</g>
<g>
</g>
<g>
</g>
<g>
</g>
<g>
</g>
<g>
</g>
<g>
</g>
<g>
</g>
<g>
</g>
<g>
</g>
</svg>
